<svg id="Capa_1" enable-background="new 0 0 512 512" height="512" viewBox="0 0 512 512" width="512" xmlns="http://www.w3.org/2000/svg" xmlns:xlink="http://www.w3.org/1999/xlink"><linearGradient id="SVGID_1_" gradientUnits="userSpaceOnUse" x1="235.5" x2="235.5" y1="79.5" y2="215.5"><stop offset=".00000036422" stop-color="#a8abff"/><stop offset="1" stop-color="#fac8ff"/></linearGradient><linearGradient id="SVGID_2_" gradientUnits="userSpaceOnUse" x1="256" x2="256" y1="72" y2="440"><stop offset=".00000011981" stop-color="#174fa3"/><stop offset="1" stop-color="#b044af"/></linearGradient><g id="Filled_39_"><path d="m463.5 243.5-40-60h-90.596l5.596-36h-301l-30 193v30h34c0 34.242 27.758 62 62 62s62-27.758 62-62h157c0 34.242 27.758 62 62 62s62-27.758 62-62h58v-30-56c0-22.644-18.356-41-41-41z" fill="#fff"/><circle cx="235.5" cy="147.5" fill="url(#SVGID_1_)" r="68"/><path d="m467.63 236.174-40.116-60.174h-85.854l5.596-36h-36.63c-3.777-38.123-36.026-68-75.125-68s-71.348 29.877-75.125 68h-92.876v15h92.875c3.777 38.123 36.026 68 75.125 68s71.348-29.877 75.125-68h19.119l-27.669 178h-140.107c-12.376-19.228-33.952-32-58.468-32s-46.093 12.772-58.468 32h-45.032v45h34.411c3.753 34.807 33.301 62 69.089 62s65.336-27.193 69.089-62h142.822c3.753 34.807 33.301 62 69.089 62s65.336-27.193 69.089-62h58.411c0-13.522 0-79.675 0-93.5 0-25.353-19.552-46.224-44.37-48.326zm-232.13-28.174c-33.36 0-60.5-27.141-60.5-60.5s27.14-60.5 60.5-60.5 60.5 27.141 60.5 60.5-27.14 60.5-60.5 60.5zm261.5 99h-27.5c-4.136 0-7.5-3.364-7.5-7.5s3.364-7.5 7.5-7.5h27.5zm-47.514-71h-82.133l7.5-45h44.633zm-130.727 112c-1.644 4.789-2.788 9.807-3.348 15h-142.822c-.56-5.193-1.704-10.211-3.348-15zm-303.759 0h22.759c-1.644 4.789-2.788 9.807-3.348 15h-19.411zm88.5 77c-30.051 0-54.5-24.448-54.5-54.5s24.449-54.5 54.5-54.5 54.5 24.448 54.5 54.5-24.449 54.5-54.5 54.5zm281 0c-30.051 0-54.5-24.448-54.5-54.5s24.449-54.5 54.5-54.5 54.5 24.448 54.5 54.5-24.449 54.5-54.5 54.5zm112.5-62h-43.411c-.56-5.193-1.704-10.211-3.348-15h46.759zm-54.032-30c-12.376-19.228-33.952-32-58.468-32s-46.093 12.772-58.468 32h-8.776l22.072-142h20.318l-10 60h109.84 4.014c15.893 0 29.227 11.129 32.643 26h-26.643c-12.407 0-22.5 10.094-22.5 22.5s10.093 22.5 22.5 22.5h27.5v11zm-330.468-140h-67v-15h67zm-82 0h-15v-15h15zm16 36.5v-15h15v15zm30-15h86v15h-86zm41 51.5h-86v-15h86zm-101 0h-15v-15h15zm87 82c-12.407 0-22.5 10.094-22.5 22.5s10.093 22.5 22.5 22.5 22.5-10.094 22.5-22.5-10.093-22.5-22.5-22.5zm0 30c-9.926 0-9.916-15 0-15 9.926 0 9.916 15 0 15zm281-30c-12.407 0-22.5 10.094-22.5 22.5s10.093 22.5 22.5 22.5 22.5-10.094 22.5-22.5-10.093-22.5-22.5-22.5zm0 30c-4.136 0-7.5-3.364-7.5-7.5s3.364-7.5 7.5-7.5 7.5 3.364 7.5 7.5-3.364 7.5-7.5 7.5zm-140.5-234h20.5v15h-35.5v-54.5h15z" fill="url(#SVGID_2_)"/></g></svg>